<?xml version="1.0" standalone="no"?><!DOCTYPE svg PUBLIC "-//W3C//DTD SVG 1.1//EN" "http://www.w3.org/Graphics/SVG/1.1/DTD/svg11.dtd"><svg t="1560994286157" class="icon" style="" viewBox="0 0 1024 1024" version="1.1" xmlns="http://www.w3.org/2000/svg" p-id="1332" xmlns:xlink="http://www.w3.org/1999/xlink" width="200" height="200"><defs><style type="text/css"></style></defs><path d="M611.42 277h-55v-40h75.33l45.17 45.17-42.33 42.33 113.14 113.14L860.86 324.5 747.73 211.36l-42.53 42.53L648.32 197h-91.9v-60h-140v60h-40v40h40v40h-55v71.09l-150 150v227.82L372.51 887h227.82l161.09-161.09V498.09l-150-150z m192.88 47.5l-56.57 56.57-56.57-56.57 56.57-56.57zM486.51 644.78l21.71 21.72-21.71 21.72-21.72-21.72z m-0.09-194.56L424.67 378h123.54z m-165 88.55L386.6 395l79.82 93.37V608.3l-58.2 58.2 78.29 78.28 78.28-78.28-58.37-58.37V488.38l79.93-93.49 65.07 143.87v140.66l-96.65 96.66H418.08l-96.66-96.66z m135-361.77h60v100h-60z m-55 140h170v20h-170z m320 392.34L583.76 847H389.08L251.42 709.34V514.66L319.13 447l-37.71 83.18V696l120.09 120.08h169.82L691.42 696V530.14l-37.55-83 67.55 67.55z" fill="#d81e06" p-id="1333"></path></svg>